<?xml version="1.0" encoding="UTF-8"?> <svg xmlns="http://www.w3.org/2000/svg" width="20" height="20" viewBox="0 0 20 20" fill="none"> <path d="M17.8716 19C8.27426 19.0135 0.989886 11.6425 1.00001 2.12837C1.00001 1.50625 1.50401 1 2.12501 1H5.09501C5.65188 1 6.12551 1.4095 6.20763 1.96075C6.4035 3.28268 6.78804 4.56967 7.34951 5.78237L7.46538 6.03212C7.54322 6.20018 7.55996 6.39014 7.51273 6.56923C7.46549 6.74832 7.35723 6.90531 7.20663 7.01312C6.28638 7.67012 5.93538 8.99199 6.65201 10.0225C7.55424 11.32 8.68032 12.4464 9.9775 13.3491C11.0091 14.0646 12.331 13.7136 12.9869 12.7945C13.0946 12.6434 13.2517 12.5348 13.431 12.4873C13.6104 12.4399 13.8007 12.4566 13.969 12.5346L14.2176 12.6494C15.4304 13.2119 16.7174 13.5966 18.0392 13.7924C18.5905 13.8745 19 14.3481 19 14.9061V17.875C19 18.0228 18.9709 18.1692 18.9143 18.3058C18.8576 18.4423 18.7747 18.5664 18.6701 18.6709C18.5655 18.7754 18.4414 18.8582 18.3047 18.9147C18.1681 18.9711 18.0217 19.0001 17.8739 19H17.8716Z" fill="#05DB7D"></path> </svg> 