<?xml version="1.0" encoding="UTF-8"?> <svg xmlns="http://www.w3.org/2000/svg" width="26" height="26" viewBox="0 0 26 26" fill="none"> <path fill-rule="evenodd" clip-rule="evenodd" d="M25.8208 12.8206C25.8208 19.9012 20.0809 25.6411 13.0003 25.6411C5.91965 25.6411 0.179688 19.9012 0.179688 12.8206C0.179688 5.73996 5.91965 0 13.0003 0C20.0809 0 25.8208 5.73996 25.8208 12.8206ZM16.4901 7.93097C15.4233 8.36088 10.3909 10.3888 6.46387 12.0651C5.44076 12.5019 5.19068 12.9564 6.24418 13.3074C6.26777 13.3152 6.29456 13.3242 6.32427 13.3341C6.6391 13.4396 7.28265 13.655 7.94011 13.8382C8.89237 14.1037 9.42286 13.9367 9.97522 13.5728C10.3408 13.3317 13.2136 11.4813 15.2856 10.1481C15.5181 9.99827 15.7711 10.3052 15.5697 10.4921C14.0324 11.9149 12.0593 13.7429 11.7583 14.0289C10.9457 14.8004 11.5363 15.2069 12.0176 15.5382C12.0373 15.5517 12.0567 15.5651 12.0759 15.5784C12.6117 15.9503 15.08 17.5341 15.569 17.8473C16.5859 18.4983 17.2326 18.3199 17.5209 16.8154C17.8587 15.0512 18.2563 12.5428 18.5382 10.7642C18.6617 9.98498 18.763 9.34582 18.8274 8.97073C19.1215 7.25775 18.5316 7.10952 16.6091 7.88301C16.5777 7.89567 16.5379 7.91172 16.4901 7.93097Z" fill="#05DB7D"></path> </svg>